<svg id="Layer_1" enable-background="new 0 0 512 512" height="512" viewBox="0 0 512 512" width="512" xmlns="http://www.w3.org/2000/svg"><g id="XMLID_1_"><g id="XMLID_818_"><path id="XMLID_1888_" d="m212 380.4 288.7-335.7c4-4.7 6.3-10.7 6.3-16.9 0-12.6-10.2-22.8-22.8-22.8-6.1 0-12 2.5-16.3 6.8l-309.3 315.2 13.8 38.5z" fill="#399349"/><path id="XMLID_1952_" d="m507 27.8c0 6.2-2.2 12.2-6.3 16.9l-288.7 335.7-39.6-14.8 328.1-353.7c4 4.1 6.5 9.8 6.5 15.9z" fill="#2b6e38"/><path id="XMLID_1924_" d="m286.8 293.5-74.8 86.9-39.6-14.9-13.8-38.5 80.1-81.6z" fill="#ffe3a8"/><path id="XMLID_1978_" d="m286.8 293.5-74.8 86.9-39.6-14.8 89.8-96.8z" fill="#ffcb5c"/><path id="XMLID_1639_" d="m212 380.4-53.4-53.4c-79.6 0-108.3 58.7-108.9 106-.7 47.3-44.7 74-44.7 74 107.3 0 207-17 207-126.6z" fill="#f7971f"/><path id="XMLID_756_" d="m212 380.4c0 96.2-76.8 121.1-168.2 125.7-12.7.6-25.7.9-38.8.9 0 0 7.3-4.4 16-12.9 12.9-8.7 29.6-24.4 36.5-45.9 12.3-38.9 48.7-91.2 110.5-111.8l7.9 7.9-2.5.8c-59.6 18.9-94.6 69-106.4 106.1-4.2 13.1-11.5 24.3-19.7 33.4 8.7-5.9 17.1-13.1 23.6-21.3 25.9-32.6 65.1-69.8 103-105.7l7.8-7.4 7.1 7.1-8 7.6c-37.7 35.7-76.6 72.6-102.1 104.7-7 8.8-16.1 16.8-25.8 23.4 11.3-3.8 22.3-8.6 32-14.1 42.8-24.4 89.2-57 109-113.4l.8-2.3z" fill="#de7e06"/></g><g id="XMLID_2951_"><g id="XMLID_2044_"><path id="XMLID_2744_" d="m5 512c-2.2 0-4.2-1.5-4.8-3.7-.6-2.2.3-4.5 2.2-5.6.4-.3 41.6-25.9 42.3-69.8.2-16.2 3.9-47.4 26-73.9 19.9-23.8 49.5-36.6 85.8-37l307.8-313.7c5.2-5.3 12.4-8.3 19.9-8.3 15.3 0 27.8 12.5 27.8 27.8 0 7.4-2.6 14.5-7.5 20.1l-200.8 233.5-7.6-6.5 200.9-233.5c3.3-3.8 5-8.6 5-13.6 0-9.8-8-17.8-17.8-17.8-4.8 0-9.4 1.9-12.7 5.3l-309.3 315.2c-.9 1-2.2 1.5-3.6 1.5-75.7 0-103.3 54.4-103.9 101.1-.5 33.4-20.8 56.7-34.6 68.8 57.6-1 97-7.8 126.6-21.6 40-18.8 59.8-50.8 60.4-97.8l-37.8-37.8 7.1-7.1 39.3 39.3c.9.9 1.5 2.2 1.5 3.5 0 27.1-6.1 50.3-18.1 68.7-10.9 16.8-27.1 30.4-48.1 40.2-33.6 15.7-78.6 22.7-146 22.7z" fill="#4d2419"/></g><g id="XMLID_410_"><path id="XMLID_2743_" d="m215.8 383.7-7.6-6.5 71.8-83.4-44.8-44.8 7.1-7.1 48.1 48.1c1.8 1.9 2 4.8.3 6.8z" fill="#4d2419"/></g></g></g></svg>
